<svg width="63" height="61" viewBox="0 0 63 61" fill="none" xmlns="http://www.w3.org/2000/svg">
  <path d="M1.5 8C1.5 4.41015 4.41015 1.5 8 1.5H54.4C57.9899 1.5 60.9 4.41015 60.9 8V40C60.9 43.5899 57.9899 46.5 54.4 46.5H45.5993C42.7443 46.5 40.0407 47.7839 38.2366 49.9966L33.1375 56.2501C32.1372 57.477 30.2628 57.477 29.2625 56.2501L24.1634 49.9966C22.3593 47.7839 19.6557 46.5 16.8007 46.5H8.00001C4.41015 46.5 1.5 43.5898 1.5 40V8Z" stroke="#13C98A" stroke-width="3"/>
  <path d="M33.9982 20.5559L34.3503 21.3892L35.2516 21.4666L41.4339 21.9977L36.7451 26.06L36.0614 26.6523L36.2663 27.5334L37.6713 33.5762L32.3591 30.3726L31.5845 29.9054L30.8098 30.3726L25.4976 33.5762L26.9026 27.5334L27.1075 26.6523L26.4238 26.06L21.7337 21.9964L27.916 21.4653L28.8173 21.3879L29.1694 20.5547L31.5837 14.8412L33.9982 20.5559ZM32.3706 12.9792C32.3705 12.9793 32.3705 12.9795 32.3704 12.9796L32.3706 12.9792Z" stroke="#13C98A" stroke-width="3"/>
</svg>
